# xmcd
#
# Track frame offsets:
#	150
#	17020
#	33355
#	49346
#	65106
#	81688
#	96712
#	114343
#	128923
#	146533
#	163604
#
# Disc length: 2367 seconds
#
# Revision: 0
# Processed by: cddbd v1.5.2PL0 Copyright (c) Steve Scherf et al.
# Submitted via: EasyCDDAExtractor 15.3.0.1
#
DISCID=a1093d0b
DTITLE=Varios Artistas - Eva Luna
DYEAR=2010
DGENRE=Latin
TTITLE0=Jenni Rivera - El
TTITLE1=Michaelangelo Mejia - Eva Luna
TTITLE2=Juanes - Yerbatero
TTITLE3=Emmanuel - Perdidos
TTITLE4=Marco Antonio Solis - Si Me Puedo Quedar
TTITLE5=Alejandro Fernandez - Cuando Digo Tu Nombre
TTITLE6=Chino and Nacho - Tu Angelito
TTITLE7=Pedro Fernandez - Ni Con Otro Corazon
TTITLE8=Wisin and Yandel - Gracias A Ti
TTITLE9=Diego Torres - Mi Corazon Se Fue
TTITLE10=El Trono De Mexico - Quiero Decirte Que Te Amo
EXTD=
EXTT0=
EXTT1=
EXTT2=
EXTT3=
EXTT4=
EXTT5=
EXTT6=
EXTT7=
EXTT8=
EXTT9=
EXTT10=
PLAYORDER=
